<mxfile host="app.diagrams.net" modified="2024-01-18T12:37:37.256Z" agent="Mozilla/5.0 (Windows NT 10.0; Win64; x64) AppleWebKit/537.36 (KHTML, like Gecko) Chrome/120.0.0.0 Safari/537.36" etag="U3Itnkyuo5jTFA2_BGnk" version="22.1.18" type="device" pages="2">
  <diagram id="C5RBs43oDa-KdzZeNtuy" name="Page-1">
    <mxGraphModel dx="1909" dy="1027" grid="1" gridSize="10" guides="1" tooltips="1" connect="1" arrows="1" fold="1" page="1" pageScale="1" pageWidth="3300" pageHeight="4681" math="0" shadow="0">
      <root>
        <mxCell id="WIyWlLk6GJQsqaUBKTNV-0" />
        <mxCell id="WIyWlLk6GJQsqaUBKTNV-1" parent="WIyWlLk6GJQsqaUBKTNV-0" />
        <mxCell id="WIyWlLk6GJQsqaUBKTNV-3" value="DMP process start" style="rounded=1;whiteSpace=wrap;html=1;fontSize=12;glass=0;strokeWidth=1;shadow=0;" parent="WIyWlLk6GJQsqaUBKTNV-1" vertex="1">
          <mxGeometry x="160" y="30" width="120" height="40" as="geometry" />
        </mxCell>
        <mxCell id="WIyWlLk6GJQsqaUBKTNV-4" value="Yes" style="rounded=0;html=1;jettySize=auto;orthogonalLoop=1;fontSize=11;endArrow=block;endFill=0;endSize=8;strokeWidth=1;shadow=0;labelBackgroundColor=none;edgeStyle=orthogonalEdgeStyle;" parent="WIyWlLk6GJQsqaUBKTNV-1" source="WIyWlLk6GJQsqaUBKTNV-6" target="aIEr-5rJ9KMMIOKjVZ7d-1" edge="1">
          <mxGeometry x="0.013" y="19" relative="1" as="geometry">
            <mxPoint y="-1" as="offset" />
            <mxPoint x="220" y="220" as="targetPoint" />
          </mxGeometry>
        </mxCell>
        <mxCell id="WIyWlLk6GJQsqaUBKTNV-5" value="No" style="edgeStyle=orthogonalEdgeStyle;rounded=0;html=1;jettySize=auto;orthogonalLoop=1;fontSize=11;endArrow=block;endFill=0;endSize=8;strokeWidth=1;shadow=0;labelBackgroundColor=none;" parent="WIyWlLk6GJQsqaUBKTNV-1" source="WIyWlLk6GJQsqaUBKTNV-6" target="WIyWlLk6GJQsqaUBKTNV-7" edge="1">
          <mxGeometry y="10" relative="1" as="geometry">
            <mxPoint as="offset" />
          </mxGeometry>
        </mxCell>
        <mxCell id="WIyWlLk6GJQsqaUBKTNV-6" value="Research Involve Personal Data?" style="rhombus;whiteSpace=wrap;html=1;shadow=0;fontFamily=Helvetica;fontSize=12;align=center;strokeWidth=1;spacing=6;spacingTop=-4;" parent="WIyWlLk6GJQsqaUBKTNV-1" vertex="1">
          <mxGeometry x="170" y="100" width="100" height="80" as="geometry" />
        </mxCell>
        <mxCell id="WIyWlLk6GJQsqaUBKTNV-7" value="TBD1" style="rounded=1;whiteSpace=wrap;html=1;fontSize=12;glass=0;strokeWidth=1;shadow=0;" parent="WIyWlLk6GJQsqaUBKTNV-1" vertex="1">
          <mxGeometry x="320" y="130" width="120" height="20" as="geometry" />
        </mxCell>
        <mxCell id="WIyWlLk6GJQsqaUBKTNV-11" value="Define DPIA" style="rounded=1;whiteSpace=wrap;html=1;fontSize=12;glass=0;strokeWidth=1;shadow=0;" parent="WIyWlLk6GJQsqaUBKTNV-1" vertex="1">
          <mxGeometry x="160" y="550" width="120" height="40" as="geometry" />
        </mxCell>
        <mxCell id="aIEr-5rJ9KMMIOKjVZ7d-2" value="" style="rounded=0;html=1;jettySize=auto;orthogonalLoop=1;fontSize=11;endArrow=block;endFill=0;endSize=8;strokeWidth=1;shadow=0;labelBackgroundColor=none;edgeStyle=orthogonalEdgeStyle;" parent="WIyWlLk6GJQsqaUBKTNV-1" source="WIyWlLk6GJQsqaUBKTNV-3" target="WIyWlLk6GJQsqaUBKTNV-6" edge="1">
          <mxGeometry relative="1" as="geometry">
            <mxPoint x="220" y="70" as="sourcePoint" />
            <mxPoint x="220" y="100" as="targetPoint" />
          </mxGeometry>
        </mxCell>
        <mxCell id="aIEr-5rJ9KMMIOKjVZ7d-1" value="Define Data Controller" style="rounded=1;whiteSpace=wrap;html=1;fontSize=12;glass=0;strokeWidth=1;shadow=0;" parent="WIyWlLk6GJQsqaUBKTNV-1" vertex="1">
          <mxGeometry x="155" y="240" width="130" height="40" as="geometry" />
        </mxCell>
        <mxCell id="aIEr-5rJ9KMMIOKjVZ7d-3" value="Define Data Processor" style="rounded=1;whiteSpace=wrap;html=1;fontSize=12;glass=0;strokeWidth=1;shadow=0;" parent="WIyWlLk6GJQsqaUBKTNV-1" vertex="1">
          <mxGeometry x="160" y="320" width="120" height="60" as="geometry" />
        </mxCell>
        <mxCell id="aIEr-5rJ9KMMIOKjVZ7d-4" value="No" style="rounded=0;html=1;jettySize=auto;orthogonalLoop=1;fontSize=11;endArrow=block;endFill=0;endSize=8;strokeWidth=1;shadow=0;labelBackgroundColor=none;edgeStyle=orthogonalEdgeStyle;exitX=0.5;exitY=1;exitDx=0;exitDy=0;" parent="WIyWlLk6GJQsqaUBKTNV-1" source="aIEr-5rJ9KMMIOKjVZ7d-6" edge="1">
          <mxGeometry x="0.065" y="-10" relative="1" as="geometry">
            <mxPoint as="offset" />
            <mxPoint x="225" y="300" as="sourcePoint" />
            <mxPoint x="221" y="322" as="targetPoint" />
            <Array as="points">
              <mxPoint x="221" y="310" />
            </Array>
          </mxGeometry>
        </mxCell>
        <mxCell id="aIEr-5rJ9KMMIOKjVZ7d-6" value="Is it needed the Joint Controller Agreement (JCA)?" style="rhombus;whiteSpace=wrap;html=1;" parent="WIyWlLk6GJQsqaUBKTNV-1" vertex="1">
          <mxGeometry x="350" y="210" width="150" height="100" as="geometry" />
        </mxCell>
        <mxCell id="aIEr-5rJ9KMMIOKjVZ7d-7" value="" style="endArrow=classic;html=1;rounded=0;exitX=1;exitY=0.5;exitDx=0;exitDy=0;" parent="WIyWlLk6GJQsqaUBKTNV-1" source="aIEr-5rJ9KMMIOKjVZ7d-1" target="aIEr-5rJ9KMMIOKjVZ7d-6" edge="1">
          <mxGeometry width="50" height="50" relative="1" as="geometry">
            <mxPoint x="370" y="270" as="sourcePoint" />
            <mxPoint x="420" y="220" as="targetPoint" />
          </mxGeometry>
        </mxCell>
        <mxCell id="aIEr-5rJ9KMMIOKjVZ7d-8" value="Yes" style="edgeLabel;html=1;align=center;verticalAlign=middle;resizable=0;points=[];" parent="aIEr-5rJ9KMMIOKjVZ7d-7" vertex="1" connectable="0">
          <mxGeometry x="-0.2434" relative="1" as="geometry">
            <mxPoint y="-10" as="offset" />
          </mxGeometry>
        </mxCell>
        <mxCell id="aIEr-5rJ9KMMIOKjVZ7d-9" value="" style="endArrow=classic;html=1;rounded=0;exitX=1;exitY=0.5;exitDx=0;exitDy=0;" parent="WIyWlLk6GJQsqaUBKTNV-1" edge="1">
          <mxGeometry width="50" height="50" relative="1" as="geometry">
            <mxPoint x="500" y="259.6" as="sourcePoint" />
            <mxPoint x="565" y="259.6" as="targetPoint" />
          </mxGeometry>
        </mxCell>
        <mxCell id="aIEr-5rJ9KMMIOKjVZ7d-10" value="Yes" style="edgeLabel;html=1;align=center;verticalAlign=middle;resizable=0;points=[];" parent="aIEr-5rJ9KMMIOKjVZ7d-9" vertex="1" connectable="0">
          <mxGeometry x="-0.2434" relative="1" as="geometry">
            <mxPoint y="-10" as="offset" />
          </mxGeometry>
        </mxCell>
        <mxCell id="aIEr-5rJ9KMMIOKjVZ7d-11" value="Define the JCA" style="rounded=1;whiteSpace=wrap;html=1;fontSize=12;glass=0;strokeWidth=1;shadow=0;" parent="WIyWlLk6GJQsqaUBKTNV-1" vertex="1">
          <mxGeometry x="560" y="250" width="120" height="20" as="geometry" />
        </mxCell>
        <mxCell id="aIEr-5rJ9KMMIOKjVZ7d-12" value="" style="endArrow=classic;html=1;rounded=0;entryX=1;entryY=0.5;entryDx=0;entryDy=0;exitX=0.5;exitY=1;exitDx=0;exitDy=0;" parent="WIyWlLk6GJQsqaUBKTNV-1" source="aIEr-5rJ9KMMIOKjVZ7d-11" target="aIEr-5rJ9KMMIOKjVZ7d-3" edge="1">
          <mxGeometry width="50" height="50" relative="1" as="geometry">
            <mxPoint x="370" y="270" as="sourcePoint" />
            <mxPoint x="420" y="220" as="targetPoint" />
            <Array as="points">
              <mxPoint x="620" y="350" />
            </Array>
          </mxGeometry>
        </mxCell>
        <mxCell id="aIEr-5rJ9KMMIOKjVZ7d-13" value="" style="endArrow=classic;html=1;rounded=0;exitX=0.5;exitY=1;exitDx=0;exitDy=0;" parent="WIyWlLk6GJQsqaUBKTNV-1" source="aIEr-5rJ9KMMIOKjVZ7d-3" edge="1">
          <mxGeometry width="50" height="50" relative="1" as="geometry">
            <mxPoint x="370" y="350" as="sourcePoint" />
            <mxPoint x="220" y="410" as="targetPoint" />
          </mxGeometry>
        </mxCell>
        <mxCell id="aIEr-5rJ9KMMIOKjVZ7d-18" value="Data Protection Impact Assessment (DPIA) needed?" style="rhombus;whiteSpace=wrap;html=1;" parent="WIyWlLk6GJQsqaUBKTNV-1" vertex="1">
          <mxGeometry x="125" y="410" width="190" height="90" as="geometry" />
        </mxCell>
        <mxCell id="aIEr-5rJ9KMMIOKjVZ7d-20" value="" style="endArrow=classic;html=1;rounded=0;exitX=1;exitY=0.5;exitDx=0;exitDy=0;" parent="WIyWlLk6GJQsqaUBKTNV-1" source="WIyWlLk6GJQsqaUBKTNV-12" edge="1">
          <mxGeometry width="50" height="50" relative="1" as="geometry">
            <mxPoint x="440" y="452" as="sourcePoint" />
            <mxPoint x="490" y="452" as="targetPoint" />
          </mxGeometry>
        </mxCell>
        <mxCell id="aIEr-5rJ9KMMIOKjVZ7d-22" value="" style="endArrow=classic;html=1;rounded=0;exitX=0.5;exitY=1;exitDx=0;exitDy=0;entryX=0.5;entryY=0;entryDx=0;entryDy=0;" parent="WIyWlLk6GJQsqaUBKTNV-1" source="aIEr-5rJ9KMMIOKjVZ7d-18" target="WIyWlLk6GJQsqaUBKTNV-11" edge="1">
          <mxGeometry width="50" height="50" relative="1" as="geometry">
            <mxPoint x="235" y="560" as="sourcePoint" />
            <mxPoint x="225" y="580" as="targetPoint" />
          </mxGeometry>
        </mxCell>
        <mxCell id="aIEr-5rJ9KMMIOKjVZ7d-23" value="Yes" style="edgeLabel;html=1;align=center;verticalAlign=middle;resizable=0;points=[];" parent="aIEr-5rJ9KMMIOKjVZ7d-22" vertex="1" connectable="0">
          <mxGeometry x="-0.088" y="1" relative="1" as="geometry">
            <mxPoint as="offset" />
          </mxGeometry>
        </mxCell>
        <mxCell id="aIEr-5rJ9KMMIOKjVZ7d-26" value="" style="endArrow=classic;html=1;rounded=0;exitX=1;exitY=0.5;exitDx=0;exitDy=0;" parent="WIyWlLk6GJQsqaUBKTNV-1" source="aIEr-5rJ9KMMIOKjVZ7d-18" target="WIyWlLk6GJQsqaUBKTNV-12" edge="1">
          <mxGeometry width="50" height="50" relative="1" as="geometry">
            <mxPoint x="315" y="455" as="sourcePoint" />
            <mxPoint x="490" y="452" as="targetPoint" />
          </mxGeometry>
        </mxCell>
        <mxCell id="aIEr-5rJ9KMMIOKjVZ7d-27" value="No" style="edgeLabel;html=1;align=center;verticalAlign=middle;resizable=0;points=[];" parent="aIEr-5rJ9KMMIOKjVZ7d-26" vertex="1" connectable="0">
          <mxGeometry x="-0.3504" relative="1" as="geometry">
            <mxPoint as="offset" />
          </mxGeometry>
        </mxCell>
        <mxCell id="WIyWlLk6GJQsqaUBKTNV-12" value="TBD2" style="rounded=1;whiteSpace=wrap;html=1;fontSize=12;glass=0;strokeWidth=1;shadow=0;" parent="WIyWlLk6GJQsqaUBKTNV-1" vertex="1">
          <mxGeometry x="400" y="435" width="120" height="40" as="geometry" />
        </mxCell>
        <mxCell id="aIEr-5rJ9KMMIOKjVZ7d-32" value="" style="edgeStyle=orthogonalEdgeStyle;rounded=0;orthogonalLoop=1;jettySize=auto;html=1;entryX=0.5;entryY=0;entryDx=0;entryDy=0;" parent="WIyWlLk6GJQsqaUBKTNV-1" target="aIEr-5rJ9KMMIOKjVZ7d-34" edge="1">
          <mxGeometry relative="1" as="geometry">
            <mxPoint x="220" y="630" as="sourcePoint" />
            <Array as="points">
              <mxPoint x="220" y="590" />
              <mxPoint x="220" y="590" />
            </Array>
          </mxGeometry>
        </mxCell>
        <mxCell id="aIEr-5rJ9KMMIOKjVZ7d-36" style="edgeStyle=orthogonalEdgeStyle;rounded=0;orthogonalLoop=1;jettySize=auto;html=1;entryX=1;entryY=0.5;entryDx=0;entryDy=0;exitX=1;exitY=0.5;exitDx=0;exitDy=0;" parent="WIyWlLk6GJQsqaUBKTNV-1" source="aIEr-5rJ9KMMIOKjVZ7d-34" target="WIyWlLk6GJQsqaUBKTNV-11" edge="1">
          <mxGeometry relative="1" as="geometry">
            <Array as="points">
              <mxPoint x="370" y="700" />
              <mxPoint x="370" y="570" />
            </Array>
          </mxGeometry>
        </mxCell>
        <mxCell id="aIEr-5rJ9KMMIOKjVZ7d-37" value="No" style="edgeLabel;html=1;align=center;verticalAlign=middle;resizable=0;points=[];" parent="aIEr-5rJ9KMMIOKjVZ7d-36" vertex="1" connectable="0">
          <mxGeometry x="-0.0882" relative="1" as="geometry">
            <mxPoint y="-12" as="offset" />
          </mxGeometry>
        </mxCell>
        <mxCell id="aIEr-5rJ9KMMIOKjVZ7d-34" value="Approved by DPO?" style="rhombus;whiteSpace=wrap;html=1;" parent="WIyWlLk6GJQsqaUBKTNV-1" vertex="1">
          <mxGeometry x="160" y="690" width="120" height="80" as="geometry" />
        </mxCell>
        <mxCell id="aIEr-5rJ9KMMIOKjVZ7d-38" value="" style="endArrow=classic;html=1;rounded=0;exitX=0.5;exitY=1;exitDx=0;exitDy=0;" parent="WIyWlLk6GJQsqaUBKTNV-1" source="aIEr-5rJ9KMMIOKjVZ7d-34" edge="1">
          <mxGeometry width="50" height="50" relative="1" as="geometry">
            <mxPoint x="320" y="820" as="sourcePoint" />
            <mxPoint x="220" y="800" as="targetPoint" />
          </mxGeometry>
        </mxCell>
        <mxCell id="aIEr-5rJ9KMMIOKjVZ7d-40" value="Yes" style="edgeLabel;html=1;align=center;verticalAlign=middle;resizable=0;points=[];" parent="aIEr-5rJ9KMMIOKjVZ7d-38" vertex="1" connectable="0">
          <mxGeometry x="0.002" y="2" relative="1" as="geometry">
            <mxPoint y="-1" as="offset" />
          </mxGeometry>
        </mxCell>
        <mxCell id="aIEr-5rJ9KMMIOKjVZ7d-39" value="Elaborate Consent Form to be signed by the Research subjects" style="rounded=1;whiteSpace=wrap;html=1;" parent="WIyWlLk6GJQsqaUBKTNV-1" vertex="1">
          <mxGeometry x="160" y="800" width="165" height="50" as="geometry" />
        </mxCell>
        <mxCell id="aIEr-5rJ9KMMIOKjVZ7d-41" value="Elaborate Information Sheet that explains how data from Research Subject will be used" style="rounded=1;whiteSpace=wrap;html=1;" parent="WIyWlLk6GJQsqaUBKTNV-1" vertex="1">
          <mxGeometry x="160" y="890" width="165" height="50" as="geometry" />
        </mxCell>
        <mxCell id="aIEr-5rJ9KMMIOKjVZ7d-42" value="Elaborate Privacy Notice to be signed by the Research Subjects" style="rounded=1;whiteSpace=wrap;html=1;" parent="WIyWlLk6GJQsqaUBKTNV-1" vertex="1">
          <mxGeometry x="160" y="982" width="165" height="50" as="geometry" />
        </mxCell>
        <mxCell id="aIEr-5rJ9KMMIOKjVZ7d-43" value="" style="endArrow=classic;html=1;rounded=0;exitX=0.394;exitY=1.034;exitDx=0;exitDy=0;exitPerimeter=0;" parent="WIyWlLk6GJQsqaUBKTNV-1" edge="1">
          <mxGeometry width="50" height="50" relative="1" as="geometry">
            <mxPoint x="240.01000000000022" y="851.7" as="sourcePoint" />
            <mxPoint x="240" y="890" as="targetPoint" />
          </mxGeometry>
        </mxCell>
        <mxCell id="aIEr-5rJ9KMMIOKjVZ7d-45" value="" style="endArrow=classic;html=1;rounded=0;exitX=0.5;exitY=1;exitDx=0;exitDy=0;" parent="WIyWlLk6GJQsqaUBKTNV-1" source="aIEr-5rJ9KMMIOKjVZ7d-41" target="aIEr-5rJ9KMMIOKjVZ7d-42" edge="1">
          <mxGeometry width="50" height="50" relative="1" as="geometry">
            <mxPoint x="340" y="900" as="sourcePoint" />
            <mxPoint x="390" y="850" as="targetPoint" />
          </mxGeometry>
        </mxCell>
        <mxCell id="aIEr-5rJ9KMMIOKjVZ7d-46" value="Elaborate Data Processing Agreement" style="rounded=1;whiteSpace=wrap;html=1;" parent="WIyWlLk6GJQsqaUBKTNV-1" vertex="1">
          <mxGeometry x="160" y="1080" width="175" height="60" as="geometry" />
        </mxCell>
        <mxCell id="aIEr-5rJ9KMMIOKjVZ7d-47" value="" style="endArrow=classic;html=1;rounded=0;exitX=0.5;exitY=1;exitDx=0;exitDy=0;entryX=0.5;entryY=0;entryDx=0;entryDy=0;" parent="WIyWlLk6GJQsqaUBKTNV-1" source="aIEr-5rJ9KMMIOKjVZ7d-42" target="aIEr-5rJ9KMMIOKjVZ7d-46" edge="1">
          <mxGeometry width="50" height="50" relative="1" as="geometry">
            <mxPoint x="340" y="1050" as="sourcePoint" />
            <mxPoint x="390" y="1000" as="targetPoint" />
          </mxGeometry>
        </mxCell>
        <mxCell id="aIEr-5rJ9KMMIOKjVZ7d-48" value="Elaborate Data Processing Agreement (DPA)" style="rounded=1;whiteSpace=wrap;html=1;" parent="WIyWlLk6GJQsqaUBKTNV-1" vertex="1">
          <mxGeometry x="160" y="1180" width="175" height="60" as="geometry" />
        </mxCell>
        <mxCell id="aIEr-5rJ9KMMIOKjVZ7d-49" value="Elaborate Balance Test" style="rounded=1;whiteSpace=wrap;html=1;" parent="WIyWlLk6GJQsqaUBKTNV-1" vertex="1">
          <mxGeometry x="160" y="1280" width="170" height="60" as="geometry" />
        </mxCell>
        <mxCell id="aIEr-5rJ9KMMIOKjVZ7d-50" value="" style="endArrow=classic;html=1;rounded=0;exitX=0.5;exitY=1;exitDx=0;exitDy=0;entryX=0.5;entryY=0;entryDx=0;entryDy=0;" parent="WIyWlLk6GJQsqaUBKTNV-1" source="aIEr-5rJ9KMMIOKjVZ7d-46" target="aIEr-5rJ9KMMIOKjVZ7d-48" edge="1">
          <mxGeometry width="50" height="50" relative="1" as="geometry">
            <mxPoint x="253" y="1042" as="sourcePoint" />
            <mxPoint x="258" y="1090" as="targetPoint" />
          </mxGeometry>
        </mxCell>
        <mxCell id="aIEr-5rJ9KMMIOKjVZ7d-51" value="" style="endArrow=classic;html=1;rounded=0;exitX=0.5;exitY=1;exitDx=0;exitDy=0;entryX=0.5;entryY=0;entryDx=0;entryDy=0;" parent="WIyWlLk6GJQsqaUBKTNV-1" edge="1">
          <mxGeometry width="50" height="50" relative="1" as="geometry">
            <mxPoint x="248" y="1241" as="sourcePoint" />
            <mxPoint x="248" y="1281" as="targetPoint" />
          </mxGeometry>
        </mxCell>
        <mxCell id="aIEr-5rJ9KMMIOKjVZ7d-52" value="Elaborate Ethic Review" style="rounded=1;whiteSpace=wrap;html=1;" parent="WIyWlLk6GJQsqaUBKTNV-1" vertex="1">
          <mxGeometry x="160" y="1560" width="175" height="60" as="geometry" />
        </mxCell>
        <mxCell id="aIEr-5rJ9KMMIOKjVZ7d-53" value="" style="endArrow=classic;html=1;rounded=0;exitX=0.5;exitY=1;exitDx=0;exitDy=0;entryX=0.5;entryY=0;entryDx=0;entryDy=0;" parent="WIyWlLk6GJQsqaUBKTNV-1" target="aIEr-5rJ9KMMIOKjVZ7d-54" edge="1">
          <mxGeometry width="50" height="50" relative="1" as="geometry">
            <mxPoint x="246" y="1340" as="sourcePoint" />
            <mxPoint x="246" y="1380" as="targetPoint" />
          </mxGeometry>
        </mxCell>
        <mxCell id="aIEr-5rJ9KMMIOKjVZ7d-54" value="Is needed a Plan of Anonymizations?" style="rhombus;whiteSpace=wrap;html=1;" parent="WIyWlLk6GJQsqaUBKTNV-1" vertex="1">
          <mxGeometry x="163" y="1380" width="160" height="90" as="geometry" />
        </mxCell>
        <mxCell id="aIEr-5rJ9KMMIOKjVZ7d-55" value="" style="endArrow=classic;html=1;rounded=0;exitX=0.5;exitY=1;exitDx=0;exitDy=0;entryX=0.463;entryY=0.01;entryDx=0;entryDy=0;entryPerimeter=0;" parent="WIyWlLk6GJQsqaUBKTNV-1" source="aIEr-5rJ9KMMIOKjVZ7d-54" target="aIEr-5rJ9KMMIOKjVZ7d-52" edge="1">
          <mxGeometry width="50" height="50" relative="1" as="geometry">
            <mxPoint x="370" y="1430" as="sourcePoint" />
            <mxPoint x="420" y="1380" as="targetPoint" />
          </mxGeometry>
        </mxCell>
        <mxCell id="aIEr-5rJ9KMMIOKjVZ7d-56" value="No" style="edgeLabel;html=1;align=center;verticalAlign=middle;resizable=0;points=[];" parent="aIEr-5rJ9KMMIOKjVZ7d-55" vertex="1" connectable="0">
          <mxGeometry x="0.5257" y="-1" relative="1" as="geometry">
            <mxPoint x="2" y="-29" as="offset" />
          </mxGeometry>
        </mxCell>
        <mxCell id="aIEr-5rJ9KMMIOKjVZ7d-57" value="Elaborate Plan of Anonymization" style="rounded=1;whiteSpace=wrap;html=1;" parent="WIyWlLk6GJQsqaUBKTNV-1" vertex="1">
          <mxGeometry x="380" y="1395" width="120" height="60" as="geometry" />
        </mxCell>
        <mxCell id="aIEr-5rJ9KMMIOKjVZ7d-58" value="" style="endArrow=classic;html=1;rounded=0;exitX=1;exitY=0.5;exitDx=0;exitDy=0;entryX=0;entryY=0.5;entryDx=0;entryDy=0;" parent="WIyWlLk6GJQsqaUBKTNV-1" source="aIEr-5rJ9KMMIOKjVZ7d-54" target="aIEr-5rJ9KMMIOKjVZ7d-57" edge="1">
          <mxGeometry width="50" height="50" relative="1" as="geometry">
            <mxPoint x="370" y="1430" as="sourcePoint" />
            <mxPoint x="420" y="1380" as="targetPoint" />
          </mxGeometry>
        </mxCell>
        <mxCell id="aIEr-5rJ9KMMIOKjVZ7d-59" value="Yes" style="edgeLabel;html=1;align=center;verticalAlign=middle;resizable=0;points=[];" parent="aIEr-5rJ9KMMIOKjVZ7d-58" vertex="1" connectable="0">
          <mxGeometry x="-0.2244" y="-1" relative="1" as="geometry">
            <mxPoint as="offset" />
          </mxGeometry>
        </mxCell>
        <mxCell id="aIEr-5rJ9KMMIOKjVZ7d-60" value="" style="endArrow=classic;html=1;rounded=0;exitX=0.5;exitY=1;exitDx=0;exitDy=0;entryX=0.992;entryY=0.351;entryDx=0;entryDy=0;entryPerimeter=0;" parent="WIyWlLk6GJQsqaUBKTNV-1" source="aIEr-5rJ9KMMIOKjVZ7d-57" target="aIEr-5rJ9KMMIOKjVZ7d-52" edge="1">
          <mxGeometry width="50" height="50" relative="1" as="geometry">
            <mxPoint x="370" y="1430" as="sourcePoint" />
            <mxPoint x="340" y="1602.20703125" as="targetPoint" />
            <Array as="points">
              <mxPoint x="440" y="1580" />
              <mxPoint x="380" y="1580" />
            </Array>
          </mxGeometry>
        </mxCell>
        <mxCell id="aIEr-5rJ9KMMIOKjVZ7d-61" value="Elaborate DMP" style="rounded=1;whiteSpace=wrap;html=1;" parent="WIyWlLk6GJQsqaUBKTNV-1" vertex="1">
          <mxGeometry x="160" y="1680" width="175" height="60" as="geometry" />
        </mxCell>
        <mxCell id="aIEr-5rJ9KMMIOKjVZ7d-62" value="" style="endArrow=classic;html=1;rounded=0;exitX=0.456;exitY=0.995;exitDx=0;exitDy=0;exitPerimeter=0;entryX=0.456;entryY=0.046;entryDx=0;entryDy=0;entryPerimeter=0;" parent="WIyWlLk6GJQsqaUBKTNV-1" source="aIEr-5rJ9KMMIOKjVZ7d-52" target="aIEr-5rJ9KMMIOKjVZ7d-61" edge="1">
          <mxGeometry width="50" height="50" relative="1" as="geometry">
            <mxPoint x="420" y="1580" as="sourcePoint" />
            <mxPoint x="470" y="1530" as="targetPoint" />
          </mxGeometry>
        </mxCell>
        <mxCell id="aIEr-5rJ9KMMIOKjVZ7d-64" value="" style="edgeStyle=orthogonalEdgeStyle;rounded=0;orthogonalLoop=1;jettySize=auto;html=1;" parent="WIyWlLk6GJQsqaUBKTNV-1" source="aIEr-5rJ9KMMIOKjVZ7d-63" target="aIEr-5rJ9KMMIOKjVZ7d-34" edge="1">
          <mxGeometry relative="1" as="geometry" />
        </mxCell>
        <mxCell id="aIEr-5rJ9KMMIOKjVZ7d-63" value="Define Risk Assesment" style="rounded=1;whiteSpace=wrap;html=1;fontSize=12;glass=0;strokeWidth=1;shadow=0;" parent="WIyWlLk6GJQsqaUBKTNV-1" vertex="1">
          <mxGeometry x="160" y="610" width="120" height="40" as="geometry" />
        </mxCell>
      </root>
    </mxGraphModel>
  </diagram>
  <diagram name="Copy of Page-1" id="uS6PSshv4fCtn3CoLA3L">
    <mxGraphModel dx="2333" dy="1256" grid="1" gridSize="10" guides="1" tooltips="1" connect="1" arrows="1" fold="1" page="1" pageScale="1" pageWidth="3300" pageHeight="4681" math="0" shadow="0">
      <root>
        <mxCell id="1luHYpCdad__teuP4Y9U-0" />
        <mxCell id="1luHYpCdad__teuP4Y9U-1" parent="1luHYpCdad__teuP4Y9U-0" />
        <mxCell id="1luHYpCdad__teuP4Y9U-2" value="DMP process start" style="rounded=1;whiteSpace=wrap;html=1;fontSize=12;glass=0;strokeWidth=1;shadow=0;" vertex="1" parent="1luHYpCdad__teuP4Y9U-1">
          <mxGeometry x="160" y="30" width="120" height="40" as="geometry" />
        </mxCell>
        <mxCell id="1luHYpCdad__teuP4Y9U-3" value="Yes" style="rounded=0;html=1;jettySize=auto;orthogonalLoop=1;fontSize=11;endArrow=block;endFill=0;endSize=8;strokeWidth=1;shadow=0;labelBackgroundColor=none;edgeStyle=orthogonalEdgeStyle;" edge="1" parent="1luHYpCdad__teuP4Y9U-1" source="1luHYpCdad__teuP4Y9U-5" target="1luHYpCdad__teuP4Y9U-9">
          <mxGeometry x="0.013" y="19" relative="1" as="geometry">
            <mxPoint y="-1" as="offset" />
            <mxPoint x="220" y="220" as="targetPoint" />
          </mxGeometry>
        </mxCell>
        <mxCell id="1luHYpCdad__teuP4Y9U-4" value="No" style="edgeStyle=orthogonalEdgeStyle;rounded=0;html=1;jettySize=auto;orthogonalLoop=1;fontSize=11;endArrow=block;endFill=0;endSize=8;strokeWidth=1;shadow=0;labelBackgroundColor=none;" edge="1" parent="1luHYpCdad__teuP4Y9U-1" source="1luHYpCdad__teuP4Y9U-5" target="1luHYpCdad__teuP4Y9U-6">
          <mxGeometry y="10" relative="1" as="geometry">
            <mxPoint as="offset" />
          </mxGeometry>
        </mxCell>
        <mxCell id="1luHYpCdad__teuP4Y9U-5" value="Research Involve Personal Data?" style="rhombus;whiteSpace=wrap;html=1;shadow=0;fontFamily=Helvetica;fontSize=12;align=center;strokeWidth=1;spacing=6;spacingTop=-4;" vertex="1" parent="1luHYpCdad__teuP4Y9U-1">
          <mxGeometry x="170" y="100" width="100" height="80" as="geometry" />
        </mxCell>
        <mxCell id="1luHYpCdad__teuP4Y9U-6" value="TBD1" style="rounded=1;whiteSpace=wrap;html=1;fontSize=12;glass=0;strokeWidth=1;shadow=0;" vertex="1" parent="1luHYpCdad__teuP4Y9U-1">
          <mxGeometry x="320" y="130" width="120" height="20" as="geometry" />
        </mxCell>
        <mxCell id="1luHYpCdad__teuP4Y9U-8" value="" style="rounded=0;html=1;jettySize=auto;orthogonalLoop=1;fontSize=11;endArrow=block;endFill=0;endSize=8;strokeWidth=1;shadow=0;labelBackgroundColor=none;edgeStyle=orthogonalEdgeStyle;" edge="1" parent="1luHYpCdad__teuP4Y9U-1" source="1luHYpCdad__teuP4Y9U-2" target="1luHYpCdad__teuP4Y9U-5">
          <mxGeometry relative="1" as="geometry">
            <mxPoint x="220" y="70" as="sourcePoint" />
            <mxPoint x="220" y="100" as="targetPoint" />
          </mxGeometry>
        </mxCell>
        <mxCell id="1luHYpCdad__teuP4Y9U-9" value="Define Data Controller" style="rounded=1;whiteSpace=wrap;html=1;fontSize=12;glass=0;strokeWidth=1;shadow=0;" vertex="1" parent="1luHYpCdad__teuP4Y9U-1">
          <mxGeometry x="155" y="240" width="130" height="40" as="geometry" />
        </mxCell>
        <mxCell id="1luHYpCdad__teuP4Y9U-10" value="Define Data Processor" style="rounded=1;whiteSpace=wrap;html=1;fontSize=12;glass=0;strokeWidth=1;shadow=0;" vertex="1" parent="1luHYpCdad__teuP4Y9U-1">
          <mxGeometry x="160" y="320" width="120" height="60" as="geometry" />
        </mxCell>
        <mxCell id="1luHYpCdad__teuP4Y9U-11" value="No" style="rounded=0;html=1;jettySize=auto;orthogonalLoop=1;fontSize=11;endArrow=block;endFill=0;endSize=8;strokeWidth=1;shadow=0;labelBackgroundColor=none;edgeStyle=orthogonalEdgeStyle;exitX=0.5;exitY=1;exitDx=0;exitDy=0;" edge="1" parent="1luHYpCdad__teuP4Y9U-1" source="1luHYpCdad__teuP4Y9U-12">
          <mxGeometry x="0.065" y="-10" relative="1" as="geometry">
            <mxPoint as="offset" />
            <mxPoint x="225" y="300" as="sourcePoint" />
            <mxPoint x="221" y="322" as="targetPoint" />
            <Array as="points">
              <mxPoint x="221" y="310" />
            </Array>
          </mxGeometry>
        </mxCell>
        <mxCell id="1luHYpCdad__teuP4Y9U-12" value="Is it needed the Joint Controller Agreement (JCA)?" style="rhombus;whiteSpace=wrap;html=1;" vertex="1" parent="1luHYpCdad__teuP4Y9U-1">
          <mxGeometry x="350" y="210" width="150" height="100" as="geometry" />
        </mxCell>
        <mxCell id="1luHYpCdad__teuP4Y9U-13" value="" style="endArrow=classic;html=1;rounded=0;exitX=1;exitY=0.5;exitDx=0;exitDy=0;" edge="1" parent="1luHYpCdad__teuP4Y9U-1" source="1luHYpCdad__teuP4Y9U-9" target="1luHYpCdad__teuP4Y9U-12">
          <mxGeometry width="50" height="50" relative="1" as="geometry">
            <mxPoint x="370" y="270" as="sourcePoint" />
            <mxPoint x="420" y="220" as="targetPoint" />
          </mxGeometry>
        </mxCell>
        <mxCell id="1luHYpCdad__teuP4Y9U-14" value="Yes" style="edgeLabel;html=1;align=center;verticalAlign=middle;resizable=0;points=[];" vertex="1" connectable="0" parent="1luHYpCdad__teuP4Y9U-13">
          <mxGeometry x="-0.2434" relative="1" as="geometry">
            <mxPoint y="-10" as="offset" />
          </mxGeometry>
        </mxCell>
        <mxCell id="1luHYpCdad__teuP4Y9U-15" value="" style="endArrow=classic;html=1;rounded=0;exitX=1;exitY=0.5;exitDx=0;exitDy=0;" edge="1" parent="1luHYpCdad__teuP4Y9U-1">
          <mxGeometry width="50" height="50" relative="1" as="geometry">
            <mxPoint x="500" y="259.6" as="sourcePoint" />
            <mxPoint x="565" y="259.6" as="targetPoint" />
          </mxGeometry>
        </mxCell>
        <mxCell id="1luHYpCdad__teuP4Y9U-16" value="Yes" style="edgeLabel;html=1;align=center;verticalAlign=middle;resizable=0;points=[];" vertex="1" connectable="0" parent="1luHYpCdad__teuP4Y9U-15">
          <mxGeometry x="-0.2434" relative="1" as="geometry">
            <mxPoint y="-10" as="offset" />
          </mxGeometry>
        </mxCell>
        <mxCell id="1luHYpCdad__teuP4Y9U-17" value="Define the JCA" style="rounded=1;whiteSpace=wrap;html=1;fontSize=12;glass=0;strokeWidth=1;shadow=0;" vertex="1" parent="1luHYpCdad__teuP4Y9U-1">
          <mxGeometry x="560" y="250" width="120" height="20" as="geometry" />
        </mxCell>
        <mxCell id="1luHYpCdad__teuP4Y9U-18" value="" style="endArrow=classic;html=1;rounded=0;entryX=1;entryY=0.5;entryDx=0;entryDy=0;exitX=0.5;exitY=1;exitDx=0;exitDy=0;" edge="1" parent="1luHYpCdad__teuP4Y9U-1" source="1luHYpCdad__teuP4Y9U-17" target="1luHYpCdad__teuP4Y9U-10">
          <mxGeometry width="50" height="50" relative="1" as="geometry">
            <mxPoint x="370" y="270" as="sourcePoint" />
            <mxPoint x="420" y="220" as="targetPoint" />
            <Array as="points">
              <mxPoint x="620" y="350" />
            </Array>
          </mxGeometry>
        </mxCell>
        <mxCell id="1luHYpCdad__teuP4Y9U-19" value="" style="endArrow=classic;html=1;rounded=0;exitX=0.5;exitY=1;exitDx=0;exitDy=0;" edge="1" parent="1luHYpCdad__teuP4Y9U-1" source="1luHYpCdad__teuP4Y9U-10">
          <mxGeometry width="50" height="50" relative="1" as="geometry">
            <mxPoint x="370" y="350" as="sourcePoint" />
            <mxPoint x="220" y="410" as="targetPoint" />
          </mxGeometry>
        </mxCell>
        <mxCell id="1luHYpCdad__teuP4Y9U-33" value="Elaborate Consent Form to be signed by the Research subjects" style="rounded=1;whiteSpace=wrap;html=1;" vertex="1" parent="1luHYpCdad__teuP4Y9U-1">
          <mxGeometry x="160" y="728" width="165" height="50" as="geometry" />
        </mxCell>
        <mxCell id="1luHYpCdad__teuP4Y9U-34" value="Elaborate Information Sheet that explains how data from Research Subject will be used" style="rounded=1;whiteSpace=wrap;html=1;" vertex="1" parent="1luHYpCdad__teuP4Y9U-1">
          <mxGeometry x="160" y="818" width="165" height="50" as="geometry" />
        </mxCell>
        <mxCell id="1luHYpCdad__teuP4Y9U-35" value="Elaborate Privacy Notice to be signed by the Research Subjects" style="rounded=1;whiteSpace=wrap;html=1;" vertex="1" parent="1luHYpCdad__teuP4Y9U-1">
          <mxGeometry x="160" y="910" width="165" height="50" as="geometry" />
        </mxCell>
        <mxCell id="1luHYpCdad__teuP4Y9U-37" value="" style="endArrow=classic;html=1;rounded=0;exitX=0.5;exitY=1;exitDx=0;exitDy=0;" edge="1" parent="1luHYpCdad__teuP4Y9U-1" source="1luHYpCdad__teuP4Y9U-34" target="1luHYpCdad__teuP4Y9U-35">
          <mxGeometry width="50" height="50" relative="1" as="geometry">
            <mxPoint x="340" y="828" as="sourcePoint" />
            <mxPoint x="390" y="778" as="targetPoint" />
          </mxGeometry>
        </mxCell>
        <mxCell id="1luHYpCdad__teuP4Y9U-39" value="" style="endArrow=classic;html=1;rounded=0;exitX=0.5;exitY=1;exitDx=0;exitDy=0;entryX=0.5;entryY=0;entryDx=0;entryDy=0;" edge="1" parent="1luHYpCdad__teuP4Y9U-1" source="1luHYpCdad__teuP4Y9U-35">
          <mxGeometry width="50" height="50" relative="1" as="geometry">
            <mxPoint x="340" y="978" as="sourcePoint" />
            <mxPoint x="242.99999999999977" y="1019" as="targetPoint" />
          </mxGeometry>
        </mxCell>
        <mxCell id="r9cDlAG_uFhU_uaox14O-37" value="" style="edgeStyle=orthogonalEdgeStyle;rounded=0;orthogonalLoop=1;jettySize=auto;html=1;" edge="1" parent="1luHYpCdad__teuP4Y9U-1" source="1luHYpCdad__teuP4Y9U-44" target="r9cDlAG_uFhU_uaox14O-29">
          <mxGeometry relative="1" as="geometry" />
        </mxCell>
        <mxCell id="1luHYpCdad__teuP4Y9U-44" value="Elaborate Ethic Review" style="rounded=1;whiteSpace=wrap;html=1;" vertex="1" parent="1luHYpCdad__teuP4Y9U-1">
          <mxGeometry x="160" y="1448" width="170" height="60" as="geometry" />
        </mxCell>
        <mxCell id="1luHYpCdad__teuP4Y9U-47" value="" style="endArrow=classic;html=1;rounded=0;exitX=0.5;exitY=1;exitDx=0;exitDy=0;entryX=0.463;entryY=0.01;entryDx=0;entryDy=0;entryPerimeter=0;" edge="1" parent="1luHYpCdad__teuP4Y9U-1" source="1luHYpCdad__teuP4Y9U-53" target="1luHYpCdad__teuP4Y9U-44">
          <mxGeometry width="50" height="50" relative="1" as="geometry">
            <mxPoint x="242.99999999999977" y="1428" as="sourcePoint" />
            <mxPoint x="420" y="1338" as="targetPoint" />
          </mxGeometry>
        </mxCell>
        <mxCell id="1luHYpCdad__teuP4Y9U-48" value="No" style="edgeLabel;html=1;align=center;verticalAlign=middle;resizable=0;points=[];" vertex="1" connectable="0" parent="1luHYpCdad__teuP4Y9U-47">
          <mxGeometry x="0.5257" y="-1" relative="1" as="geometry">
            <mxPoint x="2" y="-29" as="offset" />
          </mxGeometry>
        </mxCell>
        <mxCell id="1luHYpCdad__teuP4Y9U-53" value="Elaborate DMP" style="rounded=1;whiteSpace=wrap;html=1;" vertex="1" parent="1luHYpCdad__teuP4Y9U-1">
          <mxGeometry x="160" y="1338" width="160" height="60" as="geometry" />
        </mxCell>
        <mxCell id="r9cDlAG_uFhU_uaox14O-0" value="Elaborate Data Processing Agreement" style="rounded=1;whiteSpace=wrap;html=1;" vertex="1" parent="1luHYpCdad__teuP4Y9U-1">
          <mxGeometry x="160" y="396" width="130" height="60" as="geometry" />
        </mxCell>
        <mxCell id="r9cDlAG_uFhU_uaox14O-2" value="Elaborate Balance Test" style="rounded=1;whiteSpace=wrap;html=1;" vertex="1" parent="1luHYpCdad__teuP4Y9U-1">
          <mxGeometry x="160" y="490" width="130" height="60" as="geometry" />
        </mxCell>
        <mxCell id="r9cDlAG_uFhU_uaox14O-3" value="" style="endArrow=classic;html=1;rounded=0;exitX=0.5;exitY=1;exitDx=0;exitDy=0;" edge="1" parent="1luHYpCdad__teuP4Y9U-1" source="r9cDlAG_uFhU_uaox14O-0" target="r9cDlAG_uFhU_uaox14O-2">
          <mxGeometry width="50" height="50" relative="1" as="geometry">
            <mxPoint x="253" y="358" as="sourcePoint" />
            <mxPoint x="225" y="496" as="targetPoint" />
          </mxGeometry>
        </mxCell>
        <mxCell id="r9cDlAG_uFhU_uaox14O-5" value="" style="endArrow=classic;html=1;rounded=0;exitX=0.5;exitY=1;exitDx=0;exitDy=0;" edge="1" parent="1luHYpCdad__teuP4Y9U-1" source="r9cDlAG_uFhU_uaox14O-2">
          <mxGeometry width="50" height="50" relative="1" as="geometry">
            <mxPoint x="320" y="590" as="sourcePoint" />
            <mxPoint x="225" y="590" as="targetPoint" />
          </mxGeometry>
        </mxCell>
        <mxCell id="r9cDlAG_uFhU_uaox14O-42" style="edgeStyle=orthogonalEdgeStyle;rounded=0;orthogonalLoop=1;jettySize=auto;html=1;" edge="1" parent="1luHYpCdad__teuP4Y9U-1" source="r9cDlAG_uFhU_uaox14O-6" target="1luHYpCdad__teuP4Y9U-33">
          <mxGeometry relative="1" as="geometry" />
        </mxCell>
        <mxCell id="r9cDlAG_uFhU_uaox14O-6" value="Is needed a Plan of Anonymizations?" style="rhombus;whiteSpace=wrap;html=1;" vertex="1" parent="1luHYpCdad__teuP4Y9U-1">
          <mxGeometry x="145" y="589" width="160" height="71" as="geometry" />
        </mxCell>
        <mxCell id="r9cDlAG_uFhU_uaox14O-7" value="Elaborate Plan of Anonymization" style="rounded=1;whiteSpace=wrap;html=1;" vertex="1" parent="1luHYpCdad__teuP4Y9U-1">
          <mxGeometry x="365" y="594.5" width="120" height="60" as="geometry" />
        </mxCell>
        <mxCell id="r9cDlAG_uFhU_uaox14O-8" value="" style="endArrow=classic;html=1;rounded=0;exitX=1;exitY=0.5;exitDx=0;exitDy=0;entryX=0;entryY=0.5;entryDx=0;entryDy=0;" edge="1" parent="1luHYpCdad__teuP4Y9U-1" source="r9cDlAG_uFhU_uaox14O-6" target="r9cDlAG_uFhU_uaox14O-7">
          <mxGeometry width="50" height="50" relative="1" as="geometry">
            <mxPoint x="352" y="639" as="sourcePoint" />
            <mxPoint x="402" y="589" as="targetPoint" />
          </mxGeometry>
        </mxCell>
        <mxCell id="r9cDlAG_uFhU_uaox14O-9" value="Yes" style="edgeLabel;html=1;align=center;verticalAlign=middle;resizable=0;points=[];" vertex="1" connectable="0" parent="r9cDlAG_uFhU_uaox14O-8">
          <mxGeometry x="-0.2244" y="-1" relative="1" as="geometry">
            <mxPoint as="offset" />
          </mxGeometry>
        </mxCell>
        <mxCell id="r9cDlAG_uFhU_uaox14O-12" value="" style="endArrow=classic;html=1;rounded=0;exitX=0.5;exitY=1;exitDx=0;exitDy=0;" edge="1" parent="1luHYpCdad__teuP4Y9U-1" source="r9cDlAG_uFhU_uaox14O-7">
          <mxGeometry width="50" height="50" relative="1" as="geometry">
            <mxPoint x="320" y="750" as="sourcePoint" />
            <mxPoint x="220" y="690" as="targetPoint" />
            <Array as="points">
              <mxPoint x="425" y="690" />
            </Array>
          </mxGeometry>
        </mxCell>
        <mxCell id="r9cDlAG_uFhU_uaox14O-13" value="Define Risk Assessments:&amp;nbsp; &amp;nbsp;DPIA" style="rounded=1;whiteSpace=wrap;html=1;fontSize=12;glass=0;strokeWidth=1;shadow=0;" vertex="1" parent="1luHYpCdad__teuP4Y9U-1">
          <mxGeometry x="160" y="1148" width="170" height="40" as="geometry" />
        </mxCell>
        <mxCell id="r9cDlAG_uFhU_uaox14O-14" value="Data Protection Impact Assessment (DPIA) needed?" style="rhombus;whiteSpace=wrap;html=1;" vertex="1" parent="1luHYpCdad__teuP4Y9U-1">
          <mxGeometry x="137" y="1019" width="210" height="90" as="geometry" />
        </mxCell>
        <mxCell id="r9cDlAG_uFhU_uaox14O-15" value="" style="endArrow=classic;html=1;rounded=0;exitX=1;exitY=0.5;exitDx=0;exitDy=0;" edge="1" parent="1luHYpCdad__teuP4Y9U-1" source="r9cDlAG_uFhU_uaox14O-20">
          <mxGeometry width="50" height="50" relative="1" as="geometry">
            <mxPoint x="457" y="1050" as="sourcePoint" />
            <mxPoint x="507" y="1050" as="targetPoint" />
          </mxGeometry>
        </mxCell>
        <mxCell id="r9cDlAG_uFhU_uaox14O-16" value="" style="endArrow=classic;html=1;rounded=0;exitX=0.5;exitY=1;exitDx=0;exitDy=0;entryX=0.5;entryY=0;entryDx=0;entryDy=0;" edge="1" parent="1luHYpCdad__teuP4Y9U-1" source="r9cDlAG_uFhU_uaox14O-14" target="r9cDlAG_uFhU_uaox14O-13">
          <mxGeometry width="50" height="50" relative="1" as="geometry">
            <mxPoint x="252" y="1158" as="sourcePoint" />
            <mxPoint x="242" y="1178" as="targetPoint" />
          </mxGeometry>
        </mxCell>
        <mxCell id="r9cDlAG_uFhU_uaox14O-17" value="Yes" style="edgeLabel;html=1;align=center;verticalAlign=middle;resizable=0;points=[];" vertex="1" connectable="0" parent="r9cDlAG_uFhU_uaox14O-16">
          <mxGeometry x="-0.088" y="1" relative="1" as="geometry">
            <mxPoint as="offset" />
          </mxGeometry>
        </mxCell>
        <mxCell id="r9cDlAG_uFhU_uaox14O-18" value="" style="endArrow=classic;html=1;rounded=0;exitX=1;exitY=0.5;exitDx=0;exitDy=0;" edge="1" parent="1luHYpCdad__teuP4Y9U-1" source="r9cDlAG_uFhU_uaox14O-14" target="r9cDlAG_uFhU_uaox14O-20">
          <mxGeometry width="50" height="50" relative="1" as="geometry">
            <mxPoint x="332" y="1053" as="sourcePoint" />
            <mxPoint x="507" y="1050" as="targetPoint" />
          </mxGeometry>
        </mxCell>
        <mxCell id="r9cDlAG_uFhU_uaox14O-19" value="No" style="edgeLabel;html=1;align=center;verticalAlign=middle;resizable=0;points=[];" vertex="1" connectable="0" parent="r9cDlAG_uFhU_uaox14O-18">
          <mxGeometry x="-0.3504" relative="1" as="geometry">
            <mxPoint as="offset" />
          </mxGeometry>
        </mxCell>
        <mxCell id="r9cDlAG_uFhU_uaox14O-20" value="TBD2" style="rounded=1;whiteSpace=wrap;html=1;fontSize=12;glass=0;strokeWidth=1;shadow=0;" vertex="1" parent="1luHYpCdad__teuP4Y9U-1">
          <mxGeometry x="420" y="1044" width="120" height="40" as="geometry" />
        </mxCell>
        <mxCell id="r9cDlAG_uFhU_uaox14O-21" value="Approved by DPO?" style="rhombus;whiteSpace=wrap;html=1;" vertex="1" parent="1luHYpCdad__teuP4Y9U-1">
          <mxGeometry x="178" y="1227" width="120" height="80" as="geometry" />
        </mxCell>
        <mxCell id="r9cDlAG_uFhU_uaox14O-22" value="" style="endArrow=classic;html=1;rounded=0;entryX=0.5;entryY=0;entryDx=0;entryDy=0;" edge="1" parent="1luHYpCdad__teuP4Y9U-1" target="r9cDlAG_uFhU_uaox14O-21">
          <mxGeometry width="50" height="50" relative="1" as="geometry">
            <mxPoint x="238" y="1188" as="sourcePoint" />
            <mxPoint x="370" y="1204" as="targetPoint" />
          </mxGeometry>
        </mxCell>
        <mxCell id="r9cDlAG_uFhU_uaox14O-23" value="" style="endArrow=classic;html=1;rounded=0;entryX=1;entryY=0.5;entryDx=0;entryDy=0;" edge="1" parent="1luHYpCdad__teuP4Y9U-1" target="r9cDlAG_uFhU_uaox14O-13">
          <mxGeometry width="50" height="50" relative="1" as="geometry">
            <mxPoint x="300" y="1264" as="sourcePoint" />
            <mxPoint x="370" y="1204" as="targetPoint" />
            <Array as="points">
              <mxPoint x="400" y="1264" />
              <mxPoint x="400" y="1168" />
            </Array>
          </mxGeometry>
        </mxCell>
        <mxCell id="r9cDlAG_uFhU_uaox14O-24" value="No" style="edgeLabel;html=1;align=center;verticalAlign=middle;resizable=0;points=[];" vertex="1" connectable="0" parent="r9cDlAG_uFhU_uaox14O-23">
          <mxGeometry x="-0.6635" y="-3" relative="1" as="geometry">
            <mxPoint as="offset" />
          </mxGeometry>
        </mxCell>
        <mxCell id="r9cDlAG_uFhU_uaox14O-25" value="" style="endArrow=classic;html=1;rounded=0;exitX=0.5;exitY=1;exitDx=0;exitDy=0;" edge="1" parent="1luHYpCdad__teuP4Y9U-1" source="r9cDlAG_uFhU_uaox14O-21" target="1luHYpCdad__teuP4Y9U-53">
          <mxGeometry width="50" height="50" relative="1" as="geometry">
            <mxPoint x="320" y="1254" as="sourcePoint" />
            <mxPoint x="370" y="1204" as="targetPoint" />
          </mxGeometry>
        </mxCell>
        <mxCell id="r9cDlAG_uFhU_uaox14O-26" value="yes" style="edgeLabel;html=1;align=center;verticalAlign=middle;resizable=0;points=[];" vertex="1" connectable="0" parent="r9cDlAG_uFhU_uaox14O-25">
          <mxGeometry x="0.2417" relative="1" as="geometry">
            <mxPoint y="1" as="offset" />
          </mxGeometry>
        </mxCell>
        <mxCell id="r9cDlAG_uFhU_uaox14O-28" value="" style="endArrow=classic;html=1;rounded=0;exitX=0.5;exitY=1;exitDx=0;exitDy=0;entryX=0.5;entryY=0;entryDx=0;entryDy=0;" edge="1" parent="1luHYpCdad__teuP4Y9U-1" source="1luHYpCdad__teuP4Y9U-33" target="1luHYpCdad__teuP4Y9U-34">
          <mxGeometry width="50" height="50" relative="1" as="geometry">
            <mxPoint x="320" y="858" as="sourcePoint" />
            <mxPoint x="370" y="808" as="targetPoint" />
          </mxGeometry>
        </mxCell>
        <mxCell id="r9cDlAG_uFhU_uaox14O-30" style="edgeStyle=orthogonalEdgeStyle;rounded=0;orthogonalLoop=1;jettySize=auto;html=1;entryX=1;entryY=0.5;entryDx=0;entryDy=0;exitX=1;exitY=0.5;exitDx=0;exitDy=0;" edge="1" parent="1luHYpCdad__teuP4Y9U-1" source="r9cDlAG_uFhU_uaox14O-29" target="1luHYpCdad__teuP4Y9U-44">
          <mxGeometry relative="1" as="geometry" />
        </mxCell>
        <mxCell id="r9cDlAG_uFhU_uaox14O-31" value="No" style="edgeLabel;html=1;align=center;verticalAlign=middle;resizable=0;points=[];" vertex="1" connectable="0" parent="r9cDlAG_uFhU_uaox14O-30">
          <mxGeometry x="0.0533" y="-1" relative="1" as="geometry">
            <mxPoint as="offset" />
          </mxGeometry>
        </mxCell>
        <mxCell id="r9cDlAG_uFhU_uaox14O-40" value="" style="edgeStyle=orthogonalEdgeStyle;rounded=0;orthogonalLoop=1;jettySize=auto;html=1;" edge="1" parent="1luHYpCdad__teuP4Y9U-1" source="r9cDlAG_uFhU_uaox14O-29" target="r9cDlAG_uFhU_uaox14O-34">
          <mxGeometry relative="1" as="geometry" />
        </mxCell>
        <mxCell id="r9cDlAG_uFhU_uaox14O-41" value="Yes" style="edgeLabel;html=1;align=center;verticalAlign=middle;resizable=0;points=[];" vertex="1" connectable="0" parent="r9cDlAG_uFhU_uaox14O-40">
          <mxGeometry x="0.0111" y="2" relative="1" as="geometry">
            <mxPoint as="offset" />
          </mxGeometry>
        </mxCell>
        <mxCell id="r9cDlAG_uFhU_uaox14O-29" value="Approved by the &lt;br&gt;Ethic Commitee?" style="rhombus;whiteSpace=wrap;html=1;" vertex="1" parent="1luHYpCdad__teuP4Y9U-1">
          <mxGeometry x="160" y="1548" width="170" height="80" as="geometry" />
        </mxCell>
        <mxCell id="r9cDlAG_uFhU_uaox14O-34" value="Authorize to Perform Research" style="whiteSpace=wrap;html=1;" vertex="1" parent="1luHYpCdad__teuP4Y9U-1">
          <mxGeometry x="180" y="1668" width="120" height="60" as="geometry" />
        </mxCell>
      </root>
    </mxGraphModel>
  </diagram>
</mxfile>
